<svg width="18" height="18" viewBox="0 0 18 18" fill="none" xmlns="http://www.w3.org/2000/svg">
<path fill-rule="evenodd" clip-rule="evenodd" d="M11.2686 1.62163C10.0722 0.239039 7.92782 0.239039 6.73143 1.62163L6.19876 2.2372L5.38682 2.17858C3.56321 2.04692 2.04692 3.56321 2.17858 5.38682L2.2372 6.19876L1.62163 6.73143C0.239039 7.92782 0.239039 10.0722 1.62163 11.2686L2.2372 11.8012L2.17858 12.6132C2.04692 14.4368 3.56321 15.9531 5.38683 15.8214L6.19876 15.7628L6.73143 16.3784C7.92782 17.761 10.0722 17.761 11.2686 16.3784L11.8012 15.7628L12.6132 15.8214C14.4368 15.9531 15.9531 14.4368 15.8214 12.6132L15.7628 11.8012L16.3784 11.2686C17.761 10.0722 17.761 7.92782 16.3784 6.73143L15.7628 6.19876L15.8214 5.38683C15.9531 3.56321 14.4368 2.04692 12.6132 2.17858L11.8012 2.2372L11.2686 1.62163ZM12.6961 7.7179C13.0926 7.33343 13.1024 6.70034 12.7179 6.30385C12.3334 5.90737 11.7003 5.89763 11.3039 6.2821L7.875 9.60705L6.69615 8.46392C6.29966 8.07945 5.66657 8.08919 5.2821 8.48567C4.89763 8.88216 4.90737 9.51525 5.30385 9.89972L7.17885 11.7179C7.56674 12.094 8.18326 12.094 8.57115 11.7179L12.6961 7.7179Z" fill="white"/>
</svg>
