<svg width="3" height="11" viewBox="0 0 3 11" fill="none" xmlns="http://www.w3.org/2000/svg">
<path fill-rule="evenodd" clip-rule="evenodd" d="M1.58331 2.66666C0.894146 2.66666 0.333313 2.10582 0.333313 1.41666C0.333313 0.72749 0.894146 0.166656 1.58331 0.166656C2.27248 0.166656 2.83331 0.72749 2.83331 1.41666C2.83331 2.10582 2.27248 2.66666 1.58331 2.66666ZM0.333313 5.58332C0.333313 6.27249 0.894146 6.83332 1.58331 6.83332C2.27248 6.83332 2.83331 6.27249 2.83331 5.58332C2.83331 4.89416 2.27248 4.33332 1.58331 4.33332C0.894146 4.33332 0.333313 4.89416 0.333313 5.58332ZM0.333313 9.74999C0.333313 10.4392 0.894146 11 1.58331 11C2.27248 11 2.83331 10.4392 2.83331 9.74999C2.83331 9.06082 2.27248 8.49999 1.58331 8.49999C0.894146 8.49999 0.333313 9.06082 0.333313 9.74999Z" fill="white"/>
</svg>
