<svg width="24" height="24" viewBox="0 0 24 24" fill="none" xmlns="http://www.w3.org/2000/svg">
<path fill-rule="evenodd" clip-rule="evenodd" d="M9.59182 13.957C12.8508 13.957 17.1838 14.324 17.1838 17.499C17.1838 20.8435 12.1349 21.0442 9.96922 21.0562L9.18292 21.0562C6.87375 21.0442 1.99982 20.8447 1.99982 17.519C1.99982 14.1707 7.04871 13.9698 9.21441 13.9577L9.47461 13.957C9.51516 13.957 9.55426 13.957 9.59182 13.957ZM9.59182 15.457C6.81282 15.457 3.49982 15.814 3.49982 17.519C3.49982 18.871 5.54982 19.557 9.59182 19.557C13.6338 19.557 15.6838 18.864 15.6838 17.499C15.6838 16.144 13.6338 15.457 9.59182 15.457ZM18.7065 13.4899C21.4125 13.8949 21.9795 15.1479 21.9795 16.1269C21.9795 16.8559 21.6645 17.8429 20.1615 18.4119C20.0745 18.4449 19.9845 18.4609 19.8955 18.4609C19.5925 18.4609 19.3075 18.2759 19.1945 17.9769C19.0475 17.5899 19.2425 17.1559 19.6295 17.0099C20.4795 16.6879 20.4795 16.2949 20.4795 16.1269C20.4795 15.5599 19.8085 15.1719 18.4855 14.9749C18.0755 14.9129 17.7925 14.5309 17.8535 14.1219C17.9155 13.7119 18.3045 13.4369 18.7065 13.4899ZM9.59182 1.99997C12.4228 1.99997 14.7269 4.30397 14.7269 7.13497C14.7328 8.49897 14.2038 9.78697 13.2398 10.757C12.2778 11.728 10.9928 12.265 9.62582 12.27H9.59182C6.75982 12.27 4.45582 9.96597 4.45582 7.13497C4.45582 4.30397 6.75982 1.99997 9.59182 1.99997ZM16.6794 3.12377C18.6444 3.44577 20.0704 5.12677 20.0704 7.11977C20.0664 9.12477 18.5694 10.8468 16.5874 11.1248C16.5524 11.1298 16.5174 11.1318 16.4824 11.1318C16.1144 11.1318 15.7934 10.8608 15.7404 10.4858C15.6834 10.0758 15.9684 9.69577 16.3784 9.63877C17.6264 9.46377 18.5684 8.38077 18.5704 7.11877C18.5704 5.86477 17.6724 4.80677 16.4374 4.60477C16.0284 4.53677 15.7514 4.15177 15.8184 3.74277C15.8854 3.33377 16.2724 3.05877 16.6794 3.12377ZM9.59182 3.49997C7.58682 3.49997 5.95582 5.13097 5.95582 7.13497C5.95582 9.13897 7.58682 10.77 9.59182 10.77H9.62282C10.5868 10.766 11.4948 10.387 12.1758 9.69997C12.8578 9.01497 13.2308 8.10397 13.2268 7.13797C13.2268 5.13097 11.5958 3.49997 9.59182 3.49997Z" fill="#898CAF"/>
</svg>
